# xmcd
#
# Track frame offsets: 
#        150
#        11500
#        23422
#        34252
#        46347
#        57895
#        68822
#        81520
#        94432
#        106410
#        118227
#        128337
#        140772
#        151222
#        164097
#        175110
#        184562
#        194667
#        203957
#        215340
#
# Disc length: 3015 seconds
#
# Revision: 4
# Processed by: cddbd v1.5.2PL0 Copyright (c) Steve Scherf et al.
# Submitted via: ExactAudioCopy v1.3
#
DISCID=1d0bc514
DTITLE=Jim Reeves - Four Walls - The Legend Begins
DYEAR=1991
DGENRE=Country
TTITLE0=Wagon Load of Love (1951)
TTITLE1=Mexican Joe (1953)
TTITLE2=Then I'll Stop Loving You (1954)
TTITLE3=The Wilder Your Heart Beats the Sweeter You Love (1954)
TTITLE4=Give Me One More Kiss (1954)
TTITLE5=My Rambling Heart (1954)
TTITLE6=Bimbo (1953)
TTITLE7=Yonder Comes a Sucker (1955)
TTITLE8=My Lips Are Sealed (1955)
TTITLE9=According to My Heart (1955)
TTITLE10=I've Got Just the Thing for You (1956)
TTITLE11=Am I Losing You (1956)
TTITLE12=Look Behind You (I'll Be There) (1956)
TTITLE13=Four Walls (1957)
TTITLE14=The Gods Were Angry With Me (1957)
TTITLE15=I Know (And You Know) (1957)
TTITLE16=I Heard a Heart Break Last Night (1957)
TTITLE17=I Get the Blues When It Rains (1957)
TTITLE18=Anna Marie (1957)
TTITLE19=I Love You More (1957)
EXTD=
EXTT0=
EXTT1=
EXTT2=
EXTT3=
EXTT4=
EXTT5=
EXTT6=
EXTT7=
EXTT8=
EXTT9=
EXTT10=
EXTT11=
EXTT12=
EXTT13=
EXTT14=
EXTT15=
EXTT16=
EXTT17=
EXTT18=
EXTT19=
PLAYORDER=
